<svg width="24" height="24" viewBox="0 0 24 24" fill="none" xmlns="http://www.w3.org/2000/svg">
<rect width="24" height="24" rx="6" fill="white"/>
<path d="M6 2.75H18C19.7949 2.75 21.25 4.20507 21.25 6V18C21.25 19.7949 19.7949 21.25 18 21.25H6C4.20507 21.25 2.75 19.7949 2.75 18V6C2.75 4.20507 4.20507 2.75 6 2.75Z" fill="#222222" stroke="#222222" stroke-width="1.5"/>
<path d="M8 16V10C8 9.46957 8.21071 8.96086 8.58579 8.58579C8.96086 8.21071 9.46957 8 10 8C10.5304 8 11.0391 8.21071 11.4142 8.58579C11.7893 8.96086 12 9.46957 12 10V16M8 13H12M16 8V16" stroke="white" stroke-width="2" stroke-linecap="round" stroke-linejoin="round"/>
</svg>
