<svg width="24" height="24" viewBox="0 0 24 24" fill="none" xmlns="http://www.w3.org/2000/svg">
<path d="M1.5 4.5C1.5 4.10218 1.65804 3.72064 1.93934 3.43934C2.22064 3.15804 2.60218 3 3 3H21C21.3978 3 21.7794 3.15804 22.0607 3.43934C22.342 3.72064 22.5 4.10218 22.5 4.5V6C22.5 6.39782 22.342 6.77936 22.0607 7.06066C21.7794 7.34196 21.3978 7.5 21 7.5H3C2.60218 7.5 2.22064 7.34196 1.93934 7.06066C1.65804 6.77936 1.5 6.39782 1.5 6V4.5ZM3 9H21V17.25C21 18.2446 20.6049 19.1984 19.9017 19.9017C19.1984 20.6049 18.2446 21 17.25 21H6.75C5.75544 21 4.80161 20.6049 4.09835 19.9017C3.39509 19.1984 3 18.2446 3 17.25V9ZM9.75 12C9.55109 12 9.36032 12.079 9.21967 12.2197C9.07902 12.3603 9 12.5511 9 12.75C9 12.9489 9.07902 13.1397 9.21967 13.2803C9.36032 13.421 9.55109 13.5 9.75 13.5H14.25C14.4489 13.5 14.6397 13.421 14.7803 13.2803C14.921 13.1397 15 12.9489 15 12.75C15 12.5511 14.921 12.3603 14.7803 12.2197C14.6397 12.079 14.4489 12 14.25 12H9.75Z" fill="#222222"/>
</svg>
