<svg width="32" height="32" viewBox="0 0 32 32" fill="none" xmlns="http://www.w3.org/2000/svg">
<path d="M16.0003 24L10.4003 26.4C9.51144 26.7778 8.66699 26.7058 7.86699 26.184C7.06699 25.6622 6.66699 24.9231 6.66699 23.9667V6.66667C6.66699 5.93333 6.92833 5.30578 7.45099 4.784C7.97366 4.26222 8.60121 4.00089 9.33366 4H22.667C23.4003 4 24.0283 4.26133 24.551 4.784C25.0737 5.30667 25.3345 5.93422 25.3337 6.66667V23.9667C25.3337 24.9222 24.9337 25.6613 24.1337 26.184C23.3337 26.7067 22.4892 26.7787 21.6003 26.4L16.0003 24ZM16.0003 21.0667L22.667 23.9333V6.66667H9.33366V23.9333L16.0003 21.0667ZM16.0003 6.66667H9.33366H22.667H16.0003Z" fill="#222222"/>
</svg>
