<svg width="8" height="8" viewBox="0 0 8 8" fill="none" xmlns="http://www.w3.org/2000/svg">
<path fill-rule="evenodd" clip-rule="evenodd" d="M4.23429 0.978627C4.20796 0.940905 4.17291 0.910098 4.13212 0.888826C4.09133 0.867554 4.046 0.856445 4 0.856445C3.954 0.856445 3.90867 0.867554 3.86788 0.888826C3.8271 0.910098 3.79205 0.940905 3.76571 0.978627L1.96114 3.55691L0.488 2.0832C0.448041 2.04314 0.397086 2.01584 0.341595 2.00478C0.286105 1.99371 0.228578 1.99937 0.176307 2.02104C0.124037 2.0427 0.0793766 2.0794 0.0479889 2.12648C0.0166012 2.17356 -0.00010078 2.2289 4.57515e-07 2.28548V5.99977C4.57515e-07 6.30288 0.120408 6.59356 0.334736 6.80789C0.549063 7.02222 0.839753 7.14263 1.14286 7.14263H6.85714C7.16025 7.14263 7.45094 7.02222 7.66526 6.80789C7.87959 6.59356 8 6.30288 8 5.99977V2.28548C8.0001 2.2289 7.9834 2.17356 7.95201 2.12648C7.92062 2.0794 7.87596 2.0427 7.82369 2.02104C7.77142 1.99937 7.7139 1.99371 7.65841 2.00478C7.60291 2.01584 7.55196 2.04314 7.512 2.0832L6.03886 3.55691L4.23429 0.978627Z" fill="#FFD66F"/>
</svg>
