<svg width="18" height="18" viewBox="0 0 18 18" fill="none" xmlns="http://www.w3.org/2000/svg">
<path d="M9.44488 17.4438L9.43663 17.4453L9.38338 17.4716L9.36838 17.4746L9.35788 17.4716L9.30463 17.4453C9.29663 17.4428 9.29063 17.4441 9.28663 17.4491L9.28363 17.4566L9.27088 17.7776L9.27463 17.7926L9.28213 17.8023L9.36013 17.8578L9.37138 17.8608L9.38038 17.8578L9.45838 17.8023L9.46738 17.7903L9.47038 17.7776L9.45763 17.4573C9.45563 17.4493 9.45138 17.4448 9.44488 17.4438ZM9.64363 17.3591L9.63388 17.3606L9.49513 17.4303L9.48763 17.4378L9.48538 17.4461L9.49888 17.7686L9.50263 17.7776L9.50863 17.7828L9.65938 17.8526C9.66888 17.8551 9.67613 17.8531 9.68113 17.8466L9.68413 17.8361L9.65863 17.3756C9.65613 17.3666 9.65113 17.3611 9.64363 17.3591ZM9.10738 17.3606C9.10407 17.3586 9.10012 17.3579 9.09635 17.3588C9.09258 17.3596 9.08927 17.3619 9.08713 17.3651L9.08263 17.3756L9.05713 17.8361C9.05763 17.8451 9.06188 17.8511 9.06988 17.8541L9.08113 17.8526L9.23188 17.7828L9.23938 17.7768L9.24238 17.7686L9.25513 17.4461L9.25288 17.4371L9.24538 17.4296L9.10738 17.3606Z" fill="#9E9E9E"/>
<path d="M9 1.5C13.1422 1.5 16.5 4.85775 16.5 9C16.5 13.1422 13.1422 16.5 9 16.5C4.85775 16.5 1.5 13.1422 1.5 9C1.5 4.85775 4.85775 1.5 9 1.5ZM9 3C7.4087 3 5.88258 3.63214 4.75736 4.75736C3.63214 5.88258 3 7.4087 3 9C3 10.5913 3.63214 12.1174 4.75736 13.2426C5.88258 14.3679 7.4087 15 9 15C10.5913 15 12.1174 14.3679 13.2426 13.2426C14.3679 12.1174 15 10.5913 15 9C15 7.4087 14.3679 5.88258 13.2426 4.75736C12.1174 3.63214 10.5913 3 9 3ZM9 12C9.19891 12 9.38968 12.079 9.53033 12.2197C9.67098 12.3603 9.75 12.5511 9.75 12.75C9.75 12.9489 9.67098 13.1397 9.53033 13.2803C9.38968 13.421 9.19891 13.5 9 13.5C8.80109 13.5 8.61032 13.421 8.46967 13.2803C8.32902 13.1397 8.25 12.9489 8.25 12.75C8.25 12.5511 8.32902 12.3603 8.46967 12.2197C8.61032 12.079 8.80109 12 9 12ZM9 4.875C9.63171 4.87502 10.2437 5.09502 10.7308 5.4972C11.218 5.89938 11.5499 6.45865 11.6695 7.07893C11.7891 7.69921 11.689 8.34179 11.3863 8.89628C11.0837 9.45078 10.5974 9.88257 10.011 10.1175C9.92414 10.1494 9.84585 10.201 9.78225 10.2682C9.74925 10.3057 9.744 10.3538 9.74475 10.4033L9.75 10.5C9.74979 10.6912 9.67659 10.875 9.54536 11.014C9.41414 11.153 9.23479 11.2367 9.04395 11.2479C8.85312 11.2591 8.66522 11.197 8.51863 11.0743C8.37204 10.9516 8.27783 10.7776 8.25525 10.5877L8.25 10.5V10.3125C8.25 9.44775 8.9475 8.92875 9.453 8.7255C9.65874 8.64334 9.83821 8.5067 9.97214 8.33024C10.1061 8.15378 10.1894 7.94417 10.2132 7.72392C10.237 7.50367 10.2003 7.2811 10.1072 7.08011C10.014 6.87912 9.86785 6.7073 9.6844 6.58311C9.50096 6.45892 9.28714 6.38704 9.06593 6.3752C8.84471 6.36336 8.62445 6.412 8.4288 6.5159C8.23314 6.6198 8.06948 6.77504 7.9554 6.96493C7.84131 7.15483 7.78111 7.37222 7.78125 7.59375C7.78125 7.79266 7.70223 7.98343 7.56158 8.12408C7.42093 8.26473 7.23016 8.34375 7.03125 8.34375C6.83234 8.34375 6.64157 8.26473 6.50092 8.12408C6.36027 7.98343 6.28125 7.79266 6.28125 7.59375C6.28125 6.87269 6.56769 6.18117 7.07755 5.6713C7.58742 5.16144 8.27894 4.875 9 4.875Z" fill="#9E9E9E"/>
</svg>
