<svg width="24" height="24" viewBox="0 0 24 24" fill="none" xmlns="http://www.w3.org/2000/svg">
<path d="M19.7502 10.0003C19.7502 9.8014 19.6711 9.61064 19.5305 9.46999C19.3898 9.32933 19.1991 9.25032 19.0002 9.25032C18.8012 9.25032 18.6105 9.32933 18.4698 9.46999C18.3292 9.61064 18.2502 9.8014 18.2502 10.0003H19.7502ZM5.75015 10.0003C5.75015 9.8014 5.67114 9.61064 5.53048 9.46999C5.38983 9.32933 5.19907 9.25032 5.00015 9.25032C4.80124 9.25032 4.61048 9.32933 4.46982 9.46999C4.32917 9.61064 4.25015 9.8014 4.25015 10.0003H5.75015ZM20.4702 12.5303C20.5388 12.604 20.6216 12.6631 20.7136 12.7041C20.8056 12.7451 20.9049 12.7671 21.0056 12.7689C21.1063 12.7707 21.2064 12.7522 21.2998 12.7144C21.3931 12.6767 21.478 12.6206 21.5492 12.5494C21.6204 12.4781 21.6766 12.3933 21.7143 12.2999C21.752 12.2065 21.7705 12.1065 21.7687 12.0058C21.767 11.9051 21.7449 11.8058 21.7039 11.7138C21.6629 11.6218 21.6038 11.539 21.5302 11.4703L20.4702 12.5303ZM12.0002 3.00032L12.5302 2.47032C12.3895 2.32987 12.1989 2.25098 12.0002 2.25098C11.8014 2.25098 11.6108 2.32987 11.4702 2.47032L12.0002 3.00032ZM2.47015 11.4703C2.39647 11.539 2.33736 11.6218 2.29637 11.7138C2.25538 11.8058 2.23334 11.9051 2.23156 12.0058C2.22979 12.1065 2.24831 12.2065 2.28603 12.2999C2.32375 12.3933 2.3799 12.4781 2.45112 12.5494C2.52233 12.6206 2.60717 12.6767 2.70056 12.7144C2.79394 12.7522 2.89397 12.7707 2.99468 12.7689C3.09538 12.7671 3.19469 12.7451 3.28669 12.7041C3.37869 12.6631 3.46149 12.604 3.53015 12.5303L2.47015 11.4703ZM7.00015 21.7503H17.0002V20.2503H7.00015V21.7503ZM19.7502 19.0003V10.0003H18.2502V19.0003H19.7502ZM5.75015 19.0003V10.0003H4.25015V19.0003H5.75015ZM21.5302 11.4703L12.5302 2.47032L11.4702 3.53032L20.4702 12.5303L21.5302 11.4703ZM11.4702 2.47032L2.47015 11.4703L3.53015 12.5303L12.5302 3.53032L11.4702 2.47032ZM17.0002 21.7503C17.7295 21.7503 18.429 21.4606 18.9447 20.9449C19.4604 20.4291 19.7502 19.7297 19.7502 19.0003H18.2502C18.2502 19.6903 17.6902 20.2503 17.0002 20.2503V21.7503ZM7.00015 20.2503C6.31015 20.2503 5.75015 19.6903 5.75015 19.0003H4.25015C4.25015 19.7297 4.53988 20.4291 5.05561 20.9449C5.57133 21.4606 6.27081 21.7503 7.00015 21.7503V20.2503Z" fill="#222222"/>
</svg>
