<svg width="12" height="12" viewBox="0 0 12 12" fill="none" xmlns="http://www.w3.org/2000/svg">
<path d="M6.60648 4.89386C6.44908 4.7364 6.2622 4.6115 6.05652 4.52628C5.85083 4.44107 5.63037 4.3972 5.40773 4.3972C5.18509 4.3972 4.96464 4.44107 4.75895 4.52628C4.55327 4.6115 4.36639 4.7364 4.20898 4.89386L2.49648 6.60686C2.17862 6.92479 2.00008 7.35597 2.00012 7.80554C2.00017 8.25511 2.17881 8.68625 2.49673 9.00411C2.81466 9.32197 3.24584 9.50052 3.69541 9.50047C4.14498 9.50043 4.57612 9.32179 4.89398 9.00386L5.05448 8.85186M4.89398 6.60686C5.05139 6.76432 5.23827 6.88922 5.44395 6.97444C5.64964 7.05966 5.87009 7.10352 6.09273 7.10352C6.31537 7.10352 6.53583 7.05966 6.74152 6.97444C6.9472 6.88922 7.13408 6.76432 7.29148 6.60686L9.00348 4.89386C9.32141 4.576 9.50005 4.14486 9.5001 3.69529C9.50014 3.24572 9.3216 2.81454 9.00373 2.49661C8.68587 2.17868 8.25473 2.00005 7.80516 2C7.35559 1.99995 6.92441 2.1785 6.60648 2.49636L6.09248 2.97686" stroke="#616161" stroke-linecap="round" stroke-linejoin="round"/>
</svg>
