<svg width="24" height="24" viewBox="0 0 24 24" fill="none" xmlns="http://www.w3.org/2000/svg">
<path d="M9.367 2.25C8.275 2.25 7.409 2.25 6.712 2.307C5.998 2.365 5.395 2.487 4.844 2.767C3.94999 3.22267 3.22324 3.94977 2.768 4.844C2.487 5.394 2.365 5.998 2.307 6.712C2.25 7.409 2.25 8.275 2.25 9.367V14.633C2.25 15.725 2.25 16.591 2.307 17.288C2.365 18.002 2.487 18.605 2.767 19.157C3.22284 20.0506 3.94992 20.777 4.844 21.232C5.394 21.513 5.998 21.635 6.712 21.693C7.409 21.75 8.275 21.75 9.367 21.75H14.633C15.725 21.75 16.591 21.75 17.288 21.693C18.002 21.635 18.605 21.513 19.157 21.233C20.0505 20.7774 20.7768 20.0507 21.232 19.157C21.513 18.605 21.635 18.002 21.693 17.288C21.75 16.591 21.75 15.725 21.75 14.633V9.367C21.75 8.275 21.75 7.409 21.693 6.712C21.635 5.998 21.513 5.395 21.233 4.844C20.7776 3.95014 20.0509 3.22341 19.157 2.768C18.605 2.487 18.002 2.365 17.288 2.307C16.591 2.25 15.725 2.25 14.633 2.25H9.367ZM12 7.75C12.1989 7.75 12.3897 7.82902 12.5303 7.96967C12.671 8.11032 12.75 8.30109 12.75 8.5V11.25H15.5C15.6989 11.25 15.8897 11.329 16.0303 11.4697C16.171 11.6103 16.25 11.8011 16.25 12C16.25 12.1989 16.171 12.3897 16.0303 12.5303C15.8897 12.671 15.6989 12.75 15.5 12.75H12.75V15.5C12.75 15.6989 12.671 15.8897 12.5303 16.0303C12.3897 16.171 12.1989 16.25 12 16.25C11.8011 16.25 11.6103 16.171 11.4697 16.0303C11.329 15.8897 11.25 15.6989 11.25 15.5V12.75H8.5C8.30109 12.75 8.11032 12.671 7.96967 12.5303C7.82902 12.3897 7.75 12.1989 7.75 12C7.75 11.8011 7.82902 11.6103 7.96967 11.4697C8.11032 11.329 8.30109 11.25 8.5 11.25H11.25V8.5C11.25 8.30109 11.329 8.11032 11.4697 7.96967C11.6103 7.82902 11.8011 7.75 12 7.75Z" fill="#222222"/>
</svg>
