<svg width="24" height="24" viewBox="0 0 24 24" fill="none" xmlns="http://www.w3.org/2000/svg">
<path d="M3.28015 2.22015C3.21149 2.14647 3.12869 2.08736 3.03669 2.04637C2.94469 2.00538 2.84538 1.98334 2.74468 1.98156C2.64397 1.97979 2.54394 1.99831 2.45056 2.03603C2.35717 2.07375 2.27233 2.1299 2.20112 2.20112C2.1299 2.27233 2.07375 2.35717 2.03603 2.45056C1.99831 2.54394 1.97979 2.64397 1.98156 2.74468C1.98334 2.84538 2.00538 2.94469 2.04637 3.03669C2.08736 3.12869 2.14647 3.21149 2.22015 3.28015L4.13515 5.19615C3.50906 5.42483 2.96841 5.84049 2.5865 6.38679C2.2046 6.93309 1.9999 7.5836 2.00015 8.25015V15.7502C2.00015 16.6121 2.34256 17.4388 2.95206 18.0483C3.56155 18.6577 4.3882 19.0002 5.25015 19.0002H11.7502C12.5608 19.0003 13.3422 18.6975 13.9411 18.1512C14.54 17.6048 14.9131 16.8544 14.9872 16.0472L20.7192 21.7802C20.8605 21.9168 21.05 21.9925 21.2466 21.9909C21.4433 21.9893 21.6314 21.9105 21.7705 21.7715C21.9096 21.6325 21.9886 21.4445 21.9904 21.2478C21.9922 21.0512 21.9167 20.8617 21.7802 20.7202L3.28015 2.22015ZM16.0002 12.8182L21.0082 17.8262C21.5782 17.5522 22.0022 16.9782 22.0022 16.2482V7.75315C22.0022 6.34315 20.4182 5.51115 19.2572 6.31315L16.0002 8.56315V12.8182ZM8.18215 5.00015L15.0002 11.8182V8.25015C15.0002 7.82336 14.9161 7.40074 14.7528 7.00643C14.5894 6.61212 14.35 6.25385 14.0483 5.95206C13.7465 5.65027 13.3882 5.41087 12.9939 5.24755C12.5996 5.08422 12.1769 5.00015 11.7502 5.00015H8.18215Z" fill="white"/>
</svg>
